<svg aria-hidden="true" style="position: absolute; width: 0; height: 0; overflow: hidden;" version="1.1" xmlns="http://www.w3.org/2000/svg" xmlns:xlink="http://www.w3.org/1999/xlink">
<defs>
<symbol id="icon-ic_baseline-facebook" viewBox="0 0 32 32">
<path d="M29.035 16.033c0-7.194-5.839-13.033-13.033-13.033s-13.033 5.839-13.033 13.033c0 6.308 4.483 11.56 10.426 12.772v-8.862h-2.607v-3.91h2.607v-3.258c0-2.515 2.046-4.561 4.561-4.561h3.258v3.91h-2.607c-0.717 0-1.303 0.586-1.303 1.303v2.606h3.91v3.91h-3.91v9.058c6.581-0.652 11.729-6.203 11.729-12.967z"></path>
</symbol>
<symbol id="icon-icon-park-outline_dribble" viewBox="0 0 32 32">
<path stroke-linejoin="round" stroke-linecap="round" stroke-miterlimit="4" stroke-width="1.6667" d="M29 16c0.002 1.712-0.335 3.408-0.992 4.989s-1.621 3.017-2.836 4.223c-1.205 1.203-2.635 2.157-4.209 2.806s-3.26 0.983-4.963 0.981c-7.18 0-13-5.82-13-13-0.005-3.333 1.276-6.54 3.575-8.954 1.213-1.28 2.675-2.299 4.295-2.995s3.366-1.053 5.13-1.051c1.703-0.002 3.389 0.331 4.963 0.981s3.004 1.604 4.209 2.807c1.215 1.207 2.179 2.642 2.836 4.223s0.994 3.277 0.992 4.989z"></path>
<path stroke-linejoin="round" stroke-linecap="round" stroke-miterlimit="4" stroke-width="1.6667" d="M29 16c-1.897 0-7.129-0.715-11.813 1.341-5.088 2.234-8.771 5.7-10.377 7.854"></path>
<path stroke-linejoin="round" stroke-linecap="round" stroke-miterlimit="4" stroke-width="1.6667" d="M11.125 3.945c2.034 1.878 6.474 6.659 8.125 11.405s2.262 10.582 2.639 12.243"></path>
<path stroke-linejoin="round" stroke-linecap="round" stroke-miterlimit="4" stroke-width="1.6667" d="M3.101 14.375c2.456 0.148 8.956 0.281 13.116-1.495s7.74-5.044 8.967-6.081M3.975 20.948c1.145 2.773 3.211 5.066 5.85 6.494"></path>
<path stroke-linejoin="round" stroke-linecap="round" stroke-miterlimit="4" stroke-width="1.6667" d="M3 16c-0.005-3.333 1.276-6.54 3.575-8.954 1.213-1.28 2.675-2.299 4.295-2.995s3.366-1.053 5.13-1.051M21.2 4.082c1.48 0.648 2.827 1.565 3.972 2.706 1.215 1.207 2.179 2.642 2.836 4.223s0.994 3.277 0.992 4.989c0 1.6-0.289 3.134-0.819 4.55M16 29c1.703 0.002 3.389-0.331 4.963-0.981s3.004-1.604 4.209-2.806"></path>
</symbol>
<symbol id="icon-mdi_linkedin" viewBox="0 0 33 32">
<path d="M25.833 4c0.707 0 1.386 0.281 1.886 0.781s0.781 1.178 0.781 1.886v18.667c0 0.707-0.281 1.386-0.781 1.886s-1.178 0.781-1.886 0.781h-18.667c-0.707 0-1.386-0.281-1.886-0.781s-0.781-1.178-0.781-1.886v-18.667c0-0.707 0.281-1.386 0.781-1.886s1.178-0.781 1.886-0.781h18.667zM25.167 24.667v-7.067c0-1.153-0.458-2.258-1.273-3.074s-1.921-1.273-3.074-1.273c-1.133 0-2.453 0.693-3.093 1.733v-1.48h-3.72v11.16h3.72v-6.573c0-1.027 0.827-1.867 1.853-1.867 0.495 0 0.97 0.197 1.32 0.547s0.547 0.825 0.547 1.32v6.573h3.72zM9.673 11.413c0.594 0 1.164-0.236 1.584-0.656s0.656-0.99 0.656-1.584c0-1.24-1-2.253-2.24-2.253-0.598 0-1.171 0.237-1.593 0.66s-0.66 0.996-0.66 1.593c0 1.24 1.013 2.24 2.253 2.24zM11.527 24.667v-11.16h-3.693v11.16h3.693z"></path>
</symbol>
<symbol id="icon-ri_instagram-fill" viewBox="0 0 33 32">
<path d="M17.837 3.002c0.949-0.004 1.897 0.006 2.846 0.029l0.252 0.009c0.291 0.010 0.578 0.023 0.925 0.039 1.383 0.065 2.327 0.283 3.155 0.604 0.858 0.33 1.581 0.777 2.303 1.5 0.661 0.649 1.172 1.435 1.499 2.302 0.321 0.828 0.54 1.773 0.605 3.156 0.016 0.346 0.029 0.634 0.039 0.926l0.008 0.252c0.023 0.948 0.033 1.896 0.030 2.844l0.001 0.97v1.703c0.003 0.949-0.007 1.897-0.030 2.846l-0.008 0.252c-0.010 0.291-0.023 0.579-0.039 0.926-0.065 1.383-0.286 2.327-0.606 3.155-0.326 0.868-0.837 1.654-1.499 2.303-0.65 0.661-1.436 1.172-2.303 1.499-0.828 0.321-1.772 0.54-3.155 0.605-0.347 0.016-0.634 0.029-0.925 0.039l-0.252 0.008c-0.948 0.023-1.897 0.033-2.846 0.030l-2.671 0.001c-0.949 0.003-1.897-0.007-2.846-0.030l-0.252-0.008c-0.309-0.011-0.617-0.024-0.926-0.039-1.383-0.065-2.327-0.286-3.156-0.606-0.867-0.326-1.653-0.837-2.302-1.499-0.662-0.65-1.174-1.436-1.5-2.303-0.321-0.828-0.539-1.772-0.604-3.155-0.014-0.308-0.027-0.617-0.039-0.926l-0.006-0.252c-0.024-0.948-0.035-1.897-0.033-2.846v-2.673c-0.004-0.948 0.006-1.896 0.029-2.844l0.009-0.252c0.010-0.291 0.023-0.58 0.039-0.926 0.065-1.384 0.283-2.327 0.604-3.156 0.327-0.868 0.84-1.653 1.503-2.301 0.649-0.662 1.434-1.174 2.301-1.501 0.829-0.321 1.772-0.539 3.156-0.604l0.926-0.039 0.252-0.006c0.948-0.024 1.896-0.035 2.844-0.033l2.673 0.001zM16.5 9.5c-1.724 0-3.377 0.685-4.596 1.904s-1.904 2.872-1.904 4.596c0 1.724 0.685 3.377 1.904 4.596s2.872 1.904 4.596 1.904c1.724 0 3.377-0.685 4.596-1.904s1.904-2.872 1.904-4.596c0-1.724-0.685-3.377-1.904-4.596s-2.872-1.904-4.596-1.904zM16.5 12.1c0.512-0 1.019 0.101 1.492 0.297s0.903 0.483 1.265 0.845c0.362 0.362 0.649 0.792 0.846 1.265s0.297 0.98 0.297 1.492-0.101 1.019-0.297 1.493c-0.196 0.473-0.483 0.903-0.845 1.265s-0.792 0.649-1.265 0.846-0.98 0.297-1.492 0.297c-1.034 0-2.026-0.411-2.758-1.142s-1.142-1.723-1.142-2.758c0-1.034 0.411-2.026 1.142-2.758s1.723-1.142 2.758-1.142zM23.326 7.55c-0.419 0.017-0.816 0.195-1.107 0.498s-0.453 0.706-0.453 1.126c0 0.42 0.162 0.823 0.453 1.126s0.687 0.481 1.107 0.498c0.431 0 0.844-0.171 1.149-0.476s0.476-0.718 0.476-1.149-0.171-0.844-0.476-1.149c-0.305-0.305-0.718-0.476-1.149-0.476z"></path>
</symbol>
<symbol id="icon-simple-icons_x" viewBox="0 0 32 32">
<path d="M24.654 3h4.411l-9.636 11.015 11.337 14.985h-8.876l-6.951-9.090-7.956 9.090h-4.413l10.307-11.782-10.876-14.217h9.102l6.284 8.308 7.268-8.309zM23.106 26.361h2.444l-15.776-20.859h-2.622l15.955 20.859z"></path>
</symbol>
</defs>
</svg>
